<svg viewBox="0 0 220 136" xmlns="http://www.w3.org/2000/svg"><defs><style>.fil0 {fill:black;fill-rule:nonzero} .fil1 {fill:#5C3021;fill-rule:nonzero} .fil3 {fill:#DE5433;fill-rule:nonzero} .fil2 {fill:#C79B65;fill-rule:nonzero}</style></defs><path class="fil1" d="M173.028 103.878V84.64h6.457V93.6c0 .655-.14 1.4-.14 1.4h.28l7.026-10.357 6.178.002v19.237h-6.456v-9.04c0-.647.14-1.26.14-1.26h-.28l-7.027 10.298h-6.177zM159.64 84.128c6.14 0 10.72 4.342 10.72 10.16 0 5.76-4.58 10.105-10.72 10.105-6.077 0-10.656-4.344-10.656-10.105 0-5.818 4.58-10.16 10.657-10.16zm.002 14.272c2.346 0 3.907-1.824 3.907-4.112 0-2.344-1.562-4.168-3.908-4.168-2.286 0-3.908 1.824-3.908 4.168 0 2.288 1.622 4.112 3.908 4.112zM31.718 107.21c6.03 0 10.296 4.34 10.296 10.187 0 5.774-4.266 10.077-10.296 10.077-5.96 0-10.264-4.303-10.264-10.077 0-5.848 4.305-10.188 10.264-10.188zm0 16.733c3.883 0 6.527-2.83 6.527-6.546 0-3.788-2.644-6.657-6.527-6.657-3.81 0-6.46 2.87-6.46 6.657 0 3.715 2.65 6.546 6.46 6.546zM127.593 118.597c.038-.393.063-.792.063-1.2 0-5.85-3.025-10.19-9.36-10.19-5.415 0-9.33 4.34-9.33 10.19 0 .408.026.807.065 1.2h-.005c.438 5.02 3.65 8.882 10.374 8.882 3.244 0 6.008-.994 7.998-2.617l-1.513-2.763c-1.474 1.105-3.722 2.136-6.375 2.136-4.2 0-6.23-2.284-6.6-5.64h14.683zm-9.106-8.19c3.462 0 5.272 2.253 5.576 5.205h-11.095c.553-3.052 2.66-5.206 5.52-5.206zM144.43 107.726v7.884h-10.297v-7.884h-3.83v19.238h3.83v-8.373h10.297v8.374h3.83v-19.238M168.436 107.726h-17.53v3.412h6.85v15.826h3.83v-15.826h6.85M192.828 126.965h-3.83v-19.24h3.83M53.06 116.845v-.17s.352-.117.675-.482c.32-.362 7.335-8.468 7.335-8.468h-4.298l-6.756 7.885H48.49v-7.885h-3.83v19.24h3.83v-8.373h1.737l7.288 8.373h4.77s-8.174-9.222-8.524-9.62c-.335-.382-.7-.5-.7-.5zM177.87 113.607c-1.79 0-2.958.226-2.958.226v-6.108h-3.83v19.245s3.147.308 6.404.308c6.016 0 7.995-3.667 7.995-7.043 0-3.423-1.767-6.628-7.61-6.628zm-.683 10.463c-1.19 0-2.275-.092-2.275-.092v-6.94s.84-.226 2.318-.226c3.21 0 4.617 1.24 4.617 3.55 0 2.266-1.27 3.708-4.66 3.708zM15.136 107.725l-.103 2.426h-.246c-1.218-1.808-3.66-2.94-5.572-2.94-5.61 0-8.95 4.338-9.084 10.188-.13 5.772 3.247 10.076 8.857 10.076 2.57 0 4.176-.73 5.743-2.59h.247v1.72c0 3.724-2.582 5.2-5.492 5.2-2.682 0-4.766-1.013-6.045-1.778l-1.25 3.177c1.215.627 3.498 1.99 7.295 1.99 5.38 0 9.322-3.206 9.322-9.363v-18.105h-3.67zM9.67 123.943c-3.864 0-5.91-2.832-5.825-6.545.087-3.79 2.263-6.66 6.126-6.66 2.13 0 5.007 1.953 5.007 5.48v5.307c-1.197 1.49-3.057 2.418-5.308 2.418zM77.47 107.725v13.946c-1.123 1.404-2.847 2.273-5.025 2.273-3.516 0-5.126-2.832-5.04-6.545v-9.677H63.69v9.678c-.132 5.772 2.178 10.076 7.788 10.076 2.567 0 4.312-.762 5.747-2.59h.244v1.72c0 3.724-2.583 5.2-5.495 5.2-2.68 0-4.766-1.013-6.044-1.778l-1.25 3.177c1.216.627 3.5 1.99 7.295 1.99 5.382 0 9.324-3.206 9.324-9.363v-18.105h-3.83zM102.694 107.726s-6.334 8.905-6.518 9.168c-.185.263-.247.517-.247.517h-.14s-.078-.25-.28-.516l-7.003-9.168h-3.613v19.238h3.83v-12.27c0-.852-.18-1.335-.18-1.335h.18l7.047 9.467h.163l6.537-9.468h.178s-.178.502-.178 1.325v12.28h3.83v-19.24h-3.606zM141.243 84.64s-5.39 7.007-5.608 7.275c-.266.327-.29.504-.29.504h-.28s-.052-.19-.305-.506c-.38-.47-5.966-7.274-5.966-7.274h-5.09v19.24h6.22V95.8c0-.868-.14-1.4-.14-1.4h.28l5.003 5.747h.27l4.637-5.746h.28s-.14.523-.14 1.4v8.08h6.223V84.64h-5.094z"/><path class="fil2" d="M181.286 46.452v-19.52h-15.39v19.51c0 6.874 3.668 13.226 9.62 16.662L192.83 73.1V55.336l-9.618-5.553c-1.19-.687-1.924-1.957-1.924-3.332z"/><path class="fil3" d="M192.828 65.404l17.31-9.994c5.953-3.437 9.62-9.79 9.62-16.66V0h-26.93v15.39h11.54l.002 23.368c0 1.374-.734 2.645-1.925 3.332l-9.617 5.553v17.76z"/><path class="fil1" d="M192.828 0l-26.93 26.932h26.93"/></svg>